<?xml version="1.0" encoding="UTF-8" standalone="no"?>
<!DOCTYPE svg PUBLIC "-//W3C//DTD SVG 1.1//EN" "http://www.w3.org/Graphics/SVG/1.1/DTD/svg11.dtd">
<svg width="100%" height="100%" viewBox="0 0 500 300" version="1.1" xmlns="http://www.w3.org/2000/svg" xmlns:xlink="http://www.w3.org/1999/xlink" xml:space="preserve" style="fill-rule:evenodd;clip-rule:evenodd;stroke-linejoin:round;stroke-miterlimit:1.41421;">
    <rect x="0" y="0" width="500" height="300" style="fill:rgb(151,192,62);"/>
    <g id="android" transform="matrix(1.58753,0,0,1.58753,198.405,99.1912)">
        <path d="M15.647,47.493C15.647,49.657 17.356,51.419 19.459,51.419L22.211,51.419C22.119,51.746 22.067,52.092 22.067,52.45L22.067,60.298C22.067,62.35 23.685,64.016 25.679,64.016C27.674,64.016 29.292,62.35 29.292,60.298L29.292,52.45C29.292,52.092 29.239,51.746 29.148,51.419L35.856,51.419C35.764,51.746 35.712,52.092 35.712,52.45L35.712,60.298C35.712,62.35 37.33,64.016 39.324,64.016C41.318,64.016 42.937,62.35 42.937,60.298L42.937,52.45C42.937,52.092 42.884,51.746 42.792,51.419L45.544,51.419C47.648,51.419 49.356,49.658 49.356,47.493L49.356,20.233L15.646,20.233L15.646,47.493L15.647,47.493ZM9.626,20.233C7.631,20.233 6.014,21.897 6.014,23.95L6.014,39.851C6.014,41.904 7.631,43.568 9.626,43.568C11.62,43.568 13.238,41.904 13.238,39.851L13.238,23.951C13.238,21.897 11.62,20.233 9.626,20.233ZM55.375,20.233C53.38,20.233 51.764,21.897 51.764,23.95L51.764,39.851C51.764,41.904 53.38,43.568 55.375,43.568C57.37,43.568 58.986,41.904 58.986,39.851L58.986,23.951C58.986,21.897 57.37,20.233 55.375,20.233ZM40.789,5.355L41.467,4.308L42.135,3.276L43.637,0.958C43.821,0.673 43.745,0.289 43.471,0.099C43.192,-0.092 42.819,-0.015 42.634,0.271L41.026,2.756L40.348,3.801L39.662,4.86C37.486,3.992 35.06,3.505 32.5,3.505C29.941,3.505 27.514,3.992 25.34,4.859L24.655,3.8L23.979,2.755L22.367,0.27C22.183,-0.015 21.809,-0.092 21.531,0.098C21.256,0.288 21.18,0.672 21.365,0.957L22.865,3.275L23.534,4.307L24.212,5.354C19.103,7.803 15.646,12.443 15.646,17.754L49.354,17.754C49.355,12.444 45.898,7.804 40.789,5.355ZM25.278,12.799C24.28,12.799 23.472,11.966 23.472,10.94C23.472,9.914 24.28,9.083 25.278,9.083C26.275,9.083 27.084,9.914 27.084,10.94C27.084,11.966 26.275,12.799 25.278,12.799ZM39.725,12.799C38.727,12.799 37.919,11.966 37.919,10.94C37.919,9.914 38.727,9.083 39.725,9.083C40.723,9.083 41.53,9.914 41.53,10.94C41.53,11.966 40.723,12.799 39.725,12.799Z" style="fill:white;fill-rule:nonzero;"/>
    </g>
</svg>
