<?xml version="1.0" encoding="UTF-8"?>
<svg width="191px" height="51px" viewBox="0 0 191 51" version="1.1" xmlns="http://www.w3.org/2000/svg" xmlns:xlink="http://www.w3.org/1999/xlink">
    <!-- Generator: Sketch 42 (36781) - http://www.bohemiancoding.com/sketch -->
    <title>Group 2</title>
    <desc>Created with Sketch.</desc>
    <defs>
        <filter x="-50%" y="-50%" width="200%" height="200%" filterUnits="objectBoundingBox" id="filter-1">
            <feOffset dx="0" dy="2" in="SourceAlpha" result="shadowOffsetOuter1"></feOffset>
            <feGaussianBlur stdDeviation="2" in="shadowOffsetOuter1" result="shadowBlurOuter1"></feGaussianBlur>
            <feColorMatrix values="0 0 0 0 0   0 0 0 0 0   0 0 0 0 0  0 0 0 0.245867301 0" type="matrix" in="shadowBlurOuter1" result="shadowMatrixOuter1"></feColorMatrix>
            <feMerge>
                <feMergeNode in="shadowMatrixOuter1"></feMergeNode>
                <feMergeNode in="SourceGraphic"></feMergeNode>
            </feMerge>
        </filter>
    </defs>
    <g id="Symbols" stroke="none" stroke-width="1" fill="none" fill-rule="evenodd">
        <g id="InLearnity-Slogan-Landingpage-header-notebook" transform="translate(4.000000, 2.000000)" fill="#FFFFFF">
            <g id="Group-3">
                <g id="Group-2" filter="url(#filter-1)">
                    <text id=".com" font-family="BrandonText-Bold, Brandon Text" font-size="20" font-weight="bold">
                        <tspan x="142" y="37">.com</tspan>
                    </text>
                    <g id="InLearnityLogo_schwarz">
                        <g id="Ebene_1">
                            <g id="Group">
                                <path d="M12.1230006,14.2752471 L12.1230006,16.9468715 C12.1230006,18.2029337 12.142213,19.4789335 12.1614254,20.7349957 C12.1998501,24.9019324 12.2382748,29.068869 12.2959119,33.2358056 C12.3151243,35.0102428 12.3919737,36.7846799 12.4496108,38.559117 C12.4880355,39.6556793 11.8732399,40.3933667 10.81656,40.4930541 C9.83672952,40.5927416 8.89532376,39.8949293 8.79926195,38.917992 C8.68398778,37.7416797 8.68398778,36.5653675 8.64556305,35.3890552 C8.58792596,32.1791184 8.54950124,28.989119 8.51107652,25.7791822 C8.51107652,25.6595572 8.49186415,25.5598697 8.49186415,25.4402447 C8.03076746,25.3405573 8.03076746,25.3405573 8.03076746,25.8589322 C7.99234273,29.228369 7.95391801,32.5978058 7.89628092,35.9672426 C7.87706856,36.8046174 7.8578562,37.6619297 7.81943147,38.4993046 C7.76179438,39.9148668 6.68590209,40.7522416 5.37946145,40.4133042 C4.53411751,40.1939917 4.05380845,39.4762419 4.07302082,38.519242 C4.14987026,34.9504303 4.22671971,31.3816185 4.26514444,27.8128068 C4.30356916,23.6259326 4.30356916,19.4390585 4.30356916,15.2521844 L4.30356916,14.713872 C4.26514444,14.6939345 4.20750735,14.6939345 4.16908263,14.673997 C4.03459609,15.1524969 3.88089719,15.6309968 3.76562302,16.1294342 C3.43901286,17.6247464 3.4198005,19.1200586 3.49664995,20.6353082 C3.55428703,21.751808 3.15082742,22.3698704 2.26705876,22.4695579 C1.22959119,22.5692453 0.345822522,21.951183 0.24976071,20.9343707 C0.0192123623,17.9836213 0.307397797,15.1524969 1.67147552,12.5207474 C3.34295105,9.33074807 6.10953122,8.2541233 9.41405754,8.61299822 C13.2181053,9.05162313 15.0432797,11.5836851 15.9846855,15.0926844 C16.4842069,16.966809 16.5802687,18.8808086 16.3689327,20.8147457 C16.2344462,21.9711205 15.1777662,22.7287453 14.101874,22.4097454 C13.4102289,22.2103704 13.0644064,21.672058 13.0836188,20.8745582 C13.1028311,19.9973084 13.1412558,19.1200586 13.1220435,18.2428087 C13.0836188,17.006684 12.833858,15.8104342 12.3919737,14.6540595 C12.3343366,14.5344345 12.2766995,14.4148095 12.2190624,14.2951845 C12.1998501,14.2951845 12.1614254,14.2951845 12.1230006,14.2752471 Z" id="Shape"></path>
                                <path d="M54.9473563,30.1454938 C55.2355417,31.5012435 55.8119126,32.5180558 57.0030791,33.0364307 C58.6745546,33.774118 60.3844548,33.5747431 62.0559303,32.9965557 C62.3825405,32.8968682 62.6707259,32.7174307 62.9973361,32.6177433 C63.8042553,32.3386183 64.5535375,32.6576183 64.89936,33.3953056 C65.2451825,34.132993 64.9954218,34.9703678 64.265352,35.4289302 C62.6323012,36.46568 60.8455515,36.9441799 58.96274,36.8444924 C58.0405466,36.8046174 57.0991409,36.7049299 56.2153722,36.4457425 C54.0828,35.8276801 52.6034481,34.3722429 51.9310154,32.1791184 C51.0664591,29.3479939 51.1433085,26.536807 52.6610852,23.9249951 C53.8138269,21.9312455 55.5621519,20.9742457 57.7715735,20.7748707 C59.1356513,20.6552457 60.4613043,20.8147457 61.6908955,21.4527456 C63.7658306,22.5493078 64.9185723,24.36362 65.3412443,26.696307 C65.4565185,27.3343069 65.4949432,27.9922442 65.4565185,28.6302441 C65.3988814,29.5274314 64.8225105,30.0657438 63.9579542,30.1454938 C63.7466182,30.1654313 63.5352822,30.1654313 63.3431586,30.1654313 L55.5621519,30.1654313 C55.3892406,30.1454938 55.197117,30.1454938 54.9473563,30.1454938 Z M54.9281439,27.0751194 L62.0559303,27.0751194 C61.9598685,25.3405573 60.4613043,23.8851201 58.7321917,23.8253076 C56.6764689,23.7455576 55.1779046,25.0215573 54.9281439,27.0751194 Z" id="Shape"></path>
                                <path d="M76.6957504,35.3491802 C75.7735571,35.7678676 74.9282131,36.2862425 74.0060197,36.5653675 C72.4690307,37.0039924 70.893617,37.0438674 69.4142651,36.266305 C67.8388514,35.4488677 66.9935075,34.093118 66.9358704,32.2588683 C66.8782333,30.3847437 67.6275154,28.949244 69.2029291,28.0121817 C70.4517327,27.2545569 71.8350228,27.0153069 73.2567376,26.9754319 C74.3518422,26.9554944 75.4661593,26.9754319 76.5420515,26.9754319 C76.7918123,25.6595572 76.0233178,24.5231199 74.7553019,24.243995 C73.3527994,23.9249951 71.9887217,24.1443075 70.6438563,24.5031824 C70.3172462,24.5829324 69.990636,24.7025574 69.6640258,24.7623699 C68.876319,24.9418074 68.2230987,24.5629949 67.9733379,23.8452451 C67.6851525,22.9879328 67.9157009,22.1904329 68.7034077,21.871433 C69.6832382,21.4726831 70.682281,21.1138081 71.7197486,20.8944957 C73.27595,20.5754958 74.870576,20.5156833 76.407565,21.1337456 C78.5401372,21.991058 79.7889408,23.6458701 79.9810644,25.9984946 C80.1347633,27.8128068 80.0579139,29.6470564 80.0771262,31.481306 C80.0963386,32.5978058 80.0963386,33.7143055 80.0771262,34.8108678 C80.0387015,36.1666175 78.9243845,37.0239299 77.7716427,36.5853049 C77.1376348,36.3659925 76.8110246,35.8874926 76.6957504,35.3491802 Z M76.6573257,31.0426811 C76.6573257,30.8233686 76.6381134,30.7037437 76.6573257,30.5841187 C76.7149628,30.1056188 76.5612639,29.9461188 76.0809549,29.9660563 C75.3700974,30.0059313 74.6400277,29.9261813 73.9291703,29.9859938 C73.0454016,30.0657438 72.1616329,30.2053063 71.2970766,30.4046812 C70.7783428,30.5243062 70.413308,30.9230561 70.3556709,31.521181 C70.2403967,32.5778683 70.6630687,33.2358056 71.6813239,33.4750556 C73.27595,33.853868 74.6784524,33.4152431 75.9464683,32.3784933 C76.407565,32.0196184 76.830237,31.640806 76.6573257,31.0426811 Z" id="Shape"></path>
                                <path d="M134.409687,31.8800559 C134.966845,30.4844312 135.485579,29.188494 136.004313,27.8726192 C136.772807,25.9586196 137.52209,24.04462 138.290584,22.1306204 C138.713256,21.0938706 139.481751,20.6353082 140.346307,20.8944957 C141.402987,21.1935581 141.883296,22.2901204 141.422199,23.4464952 C140.788191,25.0813698 140.115759,26.696307 139.462538,28.3112442 C137.656576,32.8171182 135.831402,37.3429298 134.02544,41.8488039 C133.756467,42.5266787 133.410644,43.1447411 132.622937,43.2643661 C131.316497,43.463741 130.394303,42.2475538 130.8554,40.9316791 C131.335709,39.5559918 131.873655,38.1803046 132.411601,36.8046174 C132.546088,36.46568 132.526875,36.186555 132.392389,35.8476176 C130.759338,31.7803684 129.1455,27.6931818 127.531661,23.6059951 C127.089777,22.4695579 127.224263,21.711933 128.01197,21.1337456 C128.780465,20.5555583 129.952419,20.7948082 130.375091,21.672058 C130.797763,22.5293703 131.105161,23.4265577 131.450983,24.323745 C132.430814,26.7959945 133.391432,29.2881815 134.409687,31.8800559 Z" id="Shape"></path>
                                <path d="M22.8242865,22.4894954 C23.7080551,22.0109955 24.5533991,21.3929331 25.4755925,21.0739332 C29.1835784,19.7779959 32.6802283,21.9711205 32.872352,26.2377446 C33.0068385,29.1286815 32.9107767,32.0196184 32.9107767,34.9105553 C32.9107767,35.9672426 32.1422822,36.7248674 31.1816641,36.7049299 C30.2402583,36.6849924 29.5294009,35.9273676 29.5294009,34.8906178 C29.5294009,32.3585558 29.5486133,29.8464313 29.5101885,27.3143694 C29.4909762,26.5966195 29.3372773,25.8589322 29.1259413,25.1810573 C28.8761806,24.4234325 28.2037479,24.164245 27.4928905,24.0645575 C25.8790521,23.8452451 23.7080551,24.9418074 22.9011359,26.417182 C22.8242865,26.5567445 22.8242865,26.7561195 22.8242865,26.9355569 L22.8242865,34.7510553 C22.8242865,35.7279926 22.4016145,36.3659925 21.5946953,36.6052424 C20.4611659,36.9441799 19.4429107,36.1666175 19.4429107,34.9105553 L19.4429107,25.2408698 L19.4429107,22.7486828 C19.4429107,21.6521205 20.0192816,20.9144332 20.9222626,20.8346832 C21.8828807,20.7549332 22.5937381,21.3331206 22.8050741,22.4097454 C22.8242865,22.4695579 22.8242865,22.5293703 22.8242865,22.4894954 Z" id="Shape"></path>
                                <path d="M97.5795883,22.6689328 C98.6170559,21.711933 99.7313729,21.0539957 101.018601,20.8147457 C104.284703,20.2166208 106.839947,21.9312455 107.531592,25.2608073 C107.627654,25.7193697 107.666079,26.1779321 107.666079,26.6364945 C107.685291,29.3878689 107.685291,32.1591809 107.666079,34.9105553 C107.666079,35.7080551 107.224194,36.346055 106.532549,36.5853049 C105.821692,36.8245549 105.053197,36.6451174 104.649738,35.9871801 C104.419189,35.6083677 104.303915,35.1298677 104.303915,34.6912428 C104.26549,32.1791184 104.303915,29.6669939 104.284703,27.1748069 C104.284703,26.616557 104.188641,26.0383696 104.054154,25.5199947 C103.785181,24.5629949 103.093536,24.12437 102.152131,24.04462 C100.826478,23.9249951 99.7313729,24.4234325 98.7131177,25.2608073 C97.9254108,25.9187447 97.5027389,26.6364945 97.5411636,27.7928693 C97.6372254,30.1654313 97.5795883,32.5379933 97.5795883,34.9105553 C97.5795883,35.7080551 97.1569163,36.3261175 96.503696,36.5853049 C95.8312633,36.8444924 95.178043,36.7448049 94.697734,36.1666175 C94.4479732,35.8675551 94.2366373,35.4089927 94.2366373,35.0102428 C94.1982125,30.8831811 94.1982125,26.736182 94.2174249,22.6091203 C94.2174249,21.632183 94.8514329,20.9343707 95.7159892,20.8546207 C96.6189702,20.7748707 97.3682523,21.3530581 97.5603759,22.3100579 C97.5603759,22.3898079 97.5603759,22.4894954 97.5795883,22.6689328 Z" id="Shape"></path>
                                <path d="M40.192262,33.0164932 L40.82627,33.0164932 L48.6457014,33.0164932 C49.8176555,33.0164932 50.5669377,33.813993 50.4900882,34.9304928 C50.4324511,35.7279926 49.8752926,36.3659925 49.1067981,36.4856175 C48.9146745,36.5254925 48.7225509,36.5254925 48.5304273,36.5254925 L39.2124315,36.5254925 C37.9828403,36.5254925 37.1374964,35.9273676 36.8685233,34.8906178 C36.7916739,34.5716179 36.7724615,34.2326804 36.7724615,33.9136805 L36.7724615,17.5649339 C36.7724615,17.3854964 36.7916739,17.2060589 36.8108862,17.0266215 C36.9261604,16.0696217 37.5793807,15.4316218 38.4631494,15.4316218 C39.3661304,15.4316218 40.0769878,16.0895592 40.1730496,17.046559 C40.192262,17.2259964 40.192262,17.4054339 40.192262,17.5848714 L40.192262,32.2788058 C40.192262,32.5180558 40.192262,32.7174307 40.192262,33.0164932 Z" id="Shape"></path>
                                <path d="M119.078222,24.1443075 L117.618082,24.1443075 C117.214623,24.1443075 116.849588,24.004745 116.676676,23.5860576 C116.503765,23.1274952 116.580615,22.7287453 116.907225,22.3898079 C118.194453,21.0739332 119.481681,19.7580584 120.788122,18.4621212 C121.114732,18.1431213 121.498979,18.0035588 121.921651,18.2228712 C122.325111,18.4222462 122.47881,18.7811211 122.459598,19.2396835 C122.440385,19.7779959 122.459598,20.3362458 122.459598,20.9543082 L123.958162,20.9543082 C124.438471,20.9543082 124.91878,20.9543082 125.399089,21.0141207 C126.244433,21.1337456 126.724742,21.7717455 126.686317,22.6489953 C126.647893,23.4664327 126.109946,24.0645575 125.283815,24.12437 C124.476896,24.164245 123.689189,24.1443075 122.88227,24.1443075 C122.766995,24.1443075 122.651721,24.164245 122.47881,24.164245 L122.47881,24.7424324 L122.47881,31.8202434 C122.47881,33.4949931 123.055181,33.9535555 124.649807,33.5348681 C124.976417,33.4551181 125.303027,33.3753681 125.629637,33.3753681 C126.225221,33.3753681 126.724742,33.813993 126.878441,34.4320554 C127.070564,35.1099303 126.878441,35.7279926 126.378919,36.0669301 C124.91878,37.0837423 122.113775,37.0837423 120.653635,36.0669301 C119.808292,35.4688052 119.347195,34.6314304 119.193496,33.5946806 C119.116646,33.1361182 119.097434,32.6775558 119.097434,32.1990559 L119.097434,24.7224949 C119.078222,24.5629949 119.078222,24.3835575 119.078222,24.1443075 Z" id="Shape"></path>
                                <path d="M86.8975148,22.5293703 C87.7428588,21.672058 88.6458398,21.0141207 89.7985816,20.7948082 C90.2212535,20.7150582 90.6631379,20.6951207 91.0858098,20.7150582 C91.9503661,20.7948082 92.526737,21.4926206 92.5459494,22.3898079 C92.5651617,23.2471202 92.046428,23.9050576 91.201084,24.0645575 C90.8168368,24.12437 90.4325895,24.1044325 90.0483423,24.164245 C88.7995387,24.3436825 87.8389206,25.0215573 87.0896385,26.0184321 C86.9359396,26.2377446 86.8206654,26.5567445 86.8206654,26.815932 C86.801453,29.4676189 86.7630283,32.1193059 86.8206654,34.7909303 C86.8398778,35.8675551 86.0713833,36.6451174 85.1876146,36.6849924 C84.2077841,36.7248674 83.458502,35.9473051 83.458502,34.8507428 C83.4392896,30.8034311 83.4392896,26.7561195 83.4392896,22.7088078 C83.4392896,21.711933 84.0732976,20.9543082 84.9186415,20.8546207 C85.8600473,20.7549332 86.5901171,21.3331206 86.8206654,22.4097454 C86.8206654,22.4296829 86.8398778,22.4496204 86.8975148,22.5293703 Z" id="Shape"></path>
                                <path d="M114.544104,28.7698066 L114.544104,34.8906178 C114.544104,35.7479301 114.083008,36.38593 113.333725,36.6052424 C112.603656,36.8245549 111.796736,36.5853049 111.450914,35.9074301 C111.25879,35.5485552 111.162728,35.0899928 111.143516,34.6713053 C111.124304,30.7436187 111.124304,26.7959945 111.124304,22.8683078 C111.124304,21.3929331 112.104134,20.5356208 113.295301,20.8944957 C114.063795,21.1138081 114.524892,21.7717455 114.544104,22.6888703 C114.563317,24.7224949 114.544104,26.736182 114.544104,28.7698066 L114.544104,28.7698066 Z" id="Shape"></path>
                                <path d="M11.508205,3.64856175 C11.4889927,5.54262386 10.0288531,7.01799855 8.16525399,6.99806106 C6.41692902,6.97812356 4.95678948,5.42299888 4.97600185,3.56881176 C4.97600185,1.69468715 6.49377847,0.179437463 8.31895289,0.199374959 C10.0864902,0.219312455 11.5274174,1.75449964 11.508205,3.64856175 Z" id="Shape"></path>
                                <path d="M112.834204,18.8808086 C111.739099,18.8808086 110.912968,18.0234963 110.912968,16.9069965 C110.912968,15.7705592 111.758312,14.9331844 112.891841,14.9331844 C113.986946,14.9531219 114.813077,15.7904967 114.813077,16.9069965 C114.793865,18.0633713 113.986946,18.8808086 112.834204,18.8808086 Z" id="Shape"></path>
                            </g>
                        </g>
                    </g>
                </g>
            </g>
        </g>
    </g>
</svg>