<?xml version="1.0" encoding="UTF-8"?>
<svg width="1261px" height="650px" viewBox="0 0 1261 650" version="1.1" xmlns="http://www.w3.org/2000/svg" xmlns:xlink="http://www.w3.org/1999/xlink">
    <!-- Generator: Sketch 42 (36781) - http://www.bohemiancoding.com/sketch -->
    <title>Background symbols</title>
    <desc>Created with Sketch.</desc>
    <defs></defs>
    <g id="Symbols" stroke="none" stroke-width="1" fill="none" fill-rule="evenodd">
        <g id="Background-symbols">
            <g id="Group-10" transform="translate(365.000000, 17.000000)"></g>
            <g id="Group-2" opacity="0.170000002" fill="#FFFFFF">
                <path d="M392.89,42.36 L400.609,37.11 L409.211,37.11 C410.797,37.11 412.082,35.825 412.082,34.239 L412.082,20.137 C412.082,18.551 410.797,17.266 409.211,17.266 L389.277,17.266 C387.695,17.27 386.414,18.555 386.414,20.137 L386.414,34.25 C386.414,35.832 387.695,37.117 389.277,37.125 L391.992,37.125 L391.992,41.887 C391.996,42.348 392.511,42.617 392.89,42.36 Z M403.765,25.696 L403.765,25.696 C405.101,25.696 405.769,27.313 404.828,28.258 C403.882,29.199 402.265,28.532 402.265,27.196 C402.265,26.367 402.937,25.692 403.765,25.696 Z M399.265,25.696 L399.265,25.696 C400.601,25.696 401.269,27.313 400.328,28.258 C399.382,29.199 397.765,28.532 397.765,27.196 C397.765,26.375 398.425,25.707 399.246,25.696 L399.265,25.696 Z M394.765,25.696 L394.765,25.696 C396.101,25.696 396.769,27.313 395.828,28.258 C394.882,29.199 393.265,28.532 393.265,27.196 C393.265,26.383 393.91,25.719 394.722,25.696 L394.765,25.696 Z M433.054,82.575 L433.054,89 L365,89 L365,82.91 C365.172,81.215 366.215,79.735 367.754,79.004 C369.05,78.375 370.402,77.875 371.797,77.504 C373.988,76.922 376.132,76.168 378.211,75.254 L378.359,75.164 C378.793,74.887 379.054,74.407 379.05,73.891 L379.05,71.285 C372.226,71.344 370.215,68.422 370.215,68.422 C370.215,68.422 374.113,68.364 373.875,58.071 C373.636,47.782 378.375,46.071 380.144,45.41 C385.297,43.453 387.882,46.567 387.882,46.567 C393.882,46.012 395.496,52.567 394.769,59.961 C394.043,67.356 398.113,68.539 398.113,68.539 C395.277,71.407 389.398,71.227 389.398,71.227 L389.398,73.86 C389.394,74.375 389.656,74.856 390.089,75.133 L390.269,75.246 C391.082,75.653 391.922,76 392.781,76.289 C395.859,74.125 399.093,72.192 402.457,70.508 C402.597,70.438 402.687,70.293 402.691,70.133 L402.691,65.707 C402.043,64.606 401.605,63.395 401.398,62.137 C400.902,62.098 400.25,61.387 399.547,58.918 C398.586,55.52 399.605,55.02 400.468,55.102 C400.304,54.649 400.179,54.18 400.093,53.707 C399.75,52.227 399.75,50.688 400.093,49.207 C400.527,47.469 401.429,45.883 402.703,44.625 C403.418,43.867 404.222,43.199 405.101,42.637 C405.824,42.129 406.613,41.723 407.449,41.438 C408.14,41.203 408.859,41.067 409.586,41.032 C411.449,40.828 413.328,41.227 414.949,42.164 C416.023,42.719 416.925,43.559 417.558,44.586 C417.558,44.586 421.894,44.895 420.422,53.692 C420.336,54.164 420.211,54.633 420.047,55.086 C420.91,55.004 421.929,55.508 420.968,58.903 C420.273,61.387 419.613,62.137 419.121,62.137 C418.906,63.375 418.468,64.563 417.824,65.641 L417.824,70.141 C417.824,70.301 417.914,70.446 418.058,70.516 C422.808,72.883 427.293,75.754 431.425,79.078 C432.465,79.942 433.062,81.223 433.054,82.575 Z" id="Page-1"></path>
                <g id="Page-1" transform="translate(270.000000, 589.000000)">
                    <path d="M13,9.25 C13,12.703 10.203,15.5 6.75,15.5 C3.297,15.5 0.5,12.703 0.5,9.25 C0.5,5.797 3.297,3 6.75,3 C10.203,3 13,5.797 13,9.25" id="Fill-1"></path>
                    <polygon id="Fill-2" points="10.5 35.5 10.5 18 3 18 3 43 18 43 18 60.5 25.5 60.5 25.5 35.5"></polygon>
                    <path d="M70.5,9.25 C70.5,12.703 67.703,15.5 64.25,15.5 C60.797,15.5 58,12.703 58,9.25 C58,5.797 60.797,3 64.25,3 C67.703,3 70.5,5.797 70.5,9.25" id="Fill-3"></path>
                    <polygon id="Fill-4" points="60.5 18 60.5 35.5 45.5 35.5 45.5 60.5 53 60.5 53 43 68 43 68 18"></polygon>
                    <polygon id="Fill-5" points="18 33 53 33 53 28 18 28"></polygon>
                    <polygon id="Fill-6" points="33 60.5 38 60.5 38 33 33 33"></polygon>
                    <path d="M41.75,6.75 C41.75,10.203 38.953,13 35.5,13 C32.047,13 29.25,10.203 29.25,6.75 C29.25,3.297 32.047,0.5 35.5,0.5 C38.953,0.5 41.75,3.297 41.75,6.75" id="Fill-7"></path>
                    <polygon id="Fill-8" points="23 15.5 23 25.5 48 25.5 48 15.5 40.5 15.5 36.75 20.5 34.25 20.5 30.5 15.5"></polygon>
                </g>
                <path d="M1046.977,101.046 C1033.204,101.046 1022,112.25 1022,126.023 C1022,139.796 1033.204,151 1046.977,151 C1060.75,151 1071.954,139.796 1071.954,126.023 C1071.954,112.25 1060.75,101.046 1046.977,101.046 Z M1065.481,137.886 L1056.758,137.886 C1057.465,134.8 1057.899,131.296 1057.989,127.515 L1068.911,127.515 C1068.657,131.316 1067.43,134.855 1065.481,137.886 Z M1046.977,147.918 C1044.926,147.918 1042.75,145.3 1041.176,140.871 L1052.778,140.871 C1051.204,145.3 1049.028,147.918 1046.977,147.918 Z M1040.282,137.886 C1039.539,134.925 1039.051,131.418 1038.95,127.515 L1055,127.515 C1054.899,131.418 1054.411,134.925 1053.668,137.886 L1040.282,137.886 Z M1025.043,127.515 L1035.965,127.515 C1036.055,131.296 1036.485,134.8 1037.196,137.886 L1028.473,137.886 C1026.524,134.855 1025.297,131.316 1025.043,127.515 Z M1028.473,114.16 L1037.192,114.16 C1036.485,117.246 1036.051,120.75 1035.961,124.531 L1025.043,124.531 C1025.297,120.73 1026.524,117.191 1028.473,114.16 Z M1046.977,104.128 C1049.028,104.128 1051.204,106.746 1052.778,111.175 L1041.176,111.175 C1042.75,106.746 1044.926,104.128 1046.977,104.128 Z M1053.672,114.16 C1054.415,117.121 1054.903,120.628 1055.004,124.531 L1038.954,124.531 C1039.055,120.628 1039.543,117.121 1040.286,114.16 L1053.672,114.16 Z M1057.989,124.531 C1057.899,120.75 1057.469,117.246 1056.758,114.16 L1065.477,114.16 C1067.426,117.191 1068.653,120.73 1068.911,124.531 L1057.989,124.531 Z M1063.18,111.175 L1055.946,111.175 C1055.137,108.648 1054.118,106.507 1052.938,104.859 C1056.926,105.984 1060.457,108.203 1063.18,111.175 Z M1041.016,104.859 C1039.836,106.503 1038.817,108.644 1038.008,111.175 L1030.774,111.175 C1033.497,108.203 1037.028,105.984 1041.016,104.859 Z M1030.774,140.871 L1038.008,140.871 C1038.817,143.398 1039.836,145.539 1041.016,147.187 C1037.028,146.062 1033.497,143.843 1030.774,140.871 Z M1052.938,147.187 C1054.118,145.543 1055.137,143.402 1055.946,140.871 L1063.18,140.871 C1060.457,143.843 1056.926,146.062 1052.938,147.187 Z" id="Page-1"></path>
                <g id="desktop-monitor" transform="translate(1097.000000, 216.000000)" fill-rule="nonzero">
                    <g id="Capa_1">
                        <path d="M150.976776,3.93132353 C148.451321,1.41319328 145.416539,0.152861345 141.868479,0.152861345 L12.8971858,0.152861345 C9.35053734,0.152861345 6.31519126,1.41319328 3.78804189,3.93132353 C1.26230419,6.45029832 0,9.47655882 0,13.0132017 L0,100.460307 C0,103.997794 1.26230419,107.023773 3.78804189,109.543311 C6.31519126,112.061441 9.35053734,113.319521 12.8971858,113.319521 L56.7483515,113.319521 C56.7483515,115.355139 56.3180783,117.446777 55.4580965,119.588525 C54.5986794,121.731962 53.7386976,123.606555 52.8787158,125.213429 C52.0198634,126.822273 51.5898725,127.999559 51.5898725,128.749227 C51.5898725,130.142151 52.1000455,131.350403 53.1212386,132.365819 C54.141867,133.385176 55.3510929,133.89584 56.7483515,133.89584 L98.0192896,133.89584 C99.4165483,133.89584 100.626056,133.385458 101.646685,132.365819 C102.668725,131.350685 103.178898,130.142433 103.178898,128.749227 C103.178898,128.054454 102.74806,126.888147 101.888361,125.254248 C101.028379,123.621193 100.168397,121.716761 99.3095446,119.548832 C98.4495628,117.37837 98.0195719,115.302214 98.0195719,113.319521 L141.870738,113.319521 C145.416821,113.319521 148.451603,112.061441 150.977058,109.543311 C153.503643,107.024055 154.766512,103.998076 154.766512,100.460307 L154.766512,13.0132017 C154.767359,9.47655882 153.503361,6.45029832 150.976776,3.93132353 Z M144.448424,79.8842689 C144.448424,80.5810126 144.193479,81.1828866 143.683024,81.6927059 C143.172004,82.2005546 142.56725,82.4547605 141.868479,82.4547605 L12.8971858,82.4547605 C12.19898,82.4547605 11.5942259,82.2005546 11.0837705,81.6927059 C10.5735974,81.1811975 10.3180874,80.5810126 10.3180874,79.8842689 L10.3180874,13.0132017 C10.3180874,12.316458 10.5727505,11.714021 11.0837705,11.2050462 C11.5945082,10.696916 12.1992623,10.441584 12.8971858,10.441584 L141.870455,10.441584 C142.568097,10.441584 143.17398,10.6960714 143.683024,11.2050462 C144.193479,11.7143025 144.448424,12.3167395 144.448424,13.0132017 L144.448424,79.8842689 L144.448424,79.8842689 Z" id="Shape"></path>
                    </g>
                </g>
                <g id="smartphone-call" transform="translate(202.000000, 114.000000)" fill-rule="nonzero">
                    <g id="Capa_1">
                        <path d="M28.7602857,0 L4.23971429,0 C2.19685714,0 0.524857143,1.67042857 0.524857143,3.71485714 L0.524857143,51.2835714 C0.524857143,53.328 2.19685714,55 4.23971429,55 L28.7602857,55 C30.8031429,55 32.4751429,53.3311429 32.4751429,51.2851429 L32.4751429,3.71485714 C32.4751429,1.67042857 30.8031429,0 28.7602857,0 Z M12.5777143,2.67771429 L20.4222857,2.67771429 C20.6705714,2.67771429 20.8717143,2.87885714 20.8717143,3.12871429 C20.8717143,3.377 20.6705714,3.57814286 20.4222857,3.57814286 L12.5777143,3.57814286 C12.3294286,3.57814286 12.1282857,3.377 12.1282857,3.12871429 C12.1282857,2.87885714 12.3294286,2.67771429 12.5777143,2.67771429 Z M16.5,53.1425714 C15.4738571,53.1425714 14.6425714,52.3112857 14.6425714,51.2835714 C14.6425714,50.2558571 15.4738571,49.4261429 16.5,49.4261429 C17.5261429,49.4261429 18.3574286,50.2558571 18.3574286,51.2835714 C18.3574286,52.3112857 17.5261429,53.1425714 16.5,53.1425714 Z M29.8901429,48.125 L3.10985714,48.125 L3.10985714,5.89128571 L29.8901429,5.89128571 L29.8901429,48.125 Z" id="Shape"></path>
                    </g>
                </g>
                <path d="M244.89525,246.30075 C239.91825,245.98075 234.84025,247.70675 231.04325,251.50375 C226.13725,256.41375 224.69125,263.46075 226.66025,269.66775 L202.40225,293.92575 C199.19925,297.12875 199.19925,302.39475 202.40225,305.59775 C205.60525,308.80075 210.87125,308.80075 214.07425,305.59775 L238.33225,281.33975 C244.53925,283.30875 251.59025,281.86675 256.49625,276.95675 C261.55925,271.89475 262.96525,264.54275 260.71525,258.20675 C260.16825,256.63275 258.16025,256.17575 256.98825,257.36275 L249.60525,264.76975 C247.81625,266.55875 245.02025,266.55875 243.23025,264.76975 C241.44125,262.98075 241.44125,260.18375 243.23025,258.39475 L250.63725,251.01175 C251.82425,249.83975 251.36725,247.83175 249.79325,247.28475 C248.20725,246.72275 246.55525,246.40575 244.89525,246.30075 Z M244.49625,250.77775 L240.06625,255.20675 C236.56625,258.70675 236.56625,264.43375 240.06625,267.93375 C243.56625,271.43375 249.29725,271.43375 252.79325,267.93375 L257.22325,263.50375 C257.43425,267.19475 256.14125,270.93775 253.30925,273.76975 C249.30925,277.76975 243.48425,278.73775 238.59025,276.69875 C237.75025,276.34375 236.77725,276.52775 236.12925,277.16775 L210.88725,302.40975 C209.39125,303.90575 207.08625,303.90575 205.59025,302.40975 C204.09425,300.91375 204.09425,298.60975 205.59025,297.11275 L230.83225,271.87075 C231.47325,271.22275 231.65625,270.24975 231.30125,269.40975 C229.26225,264.51575 230.23025,258.69175 234.23025,254.69175 C237.06325,251.85975 240.80525,250.56675 244.49625,250.77775 Z" id="Page-1"></path>
                <g id="Page-1" transform="translate(353.000000, 393.000000)">
                    <path d="M3.559,4.559 C-1.184,9.301 -1.184,16.992 3.559,21.734 L20.734,4.559 C15.992,-0.188 8.301,-0.188 3.559,4.559 Z" id="Fill-1"></path>
                    <path d="M45.668,63.844 L75,76 L62.848,46.668 L25.438,9.258 L8.258,26.434 L45.668,63.844 Z M49.578,56.234 C51.141,54.672 54.094,55.098 54.746,55.75 C54.094,55.098 53.668,52.141 55.23,50.578 C56.793,49.016 59.91,48.461 59.91,48.461 L66.895,65.312 L64.309,67.898 L47.457,60.914 C47.461,60.918 48.016,57.797 49.578,56.234 Z" id="Fill-2"></path>
                </g>
                <g id="computer-tablet" transform="translate(147.000000, 405.000000)" fill-rule="nonzero">
                    <g id="Capa_1">
                        <path d="M52.6715,2.26971144 C51.1795,0.756288557 49.3886667,0 47.2943333,0 L7.70383333,0 C5.61,0 3.81766667,0.756288557 2.3265,2.26971144 C0.835666667,3.78347264 0.0901666667,5.60204975 0.0901666667,7.72730348 L0.0901666667,60.2721891 C0.0901666667,62.3977811 0.835666667,64.215005 2.3265,65.7292736 C3.81766667,67.2430348 5.61,67.9984776 7.70383333,67.9984776 L47.2941667,67.9984776 C49.3885,67.9984776 51.1795,67.2430348 52.6715,65.7292736 C54.1625,64.215005 54.9085,62.3967662 54.9085,60.2721891 L54.9085,7.72747264 C54.9085,5.60204975 54.1608333,3.78296517 52.6715,2.26971144 Z M28.8462939,66.1039998 C28.4409942,66.5154626 27.9603107,66.721194 27.4049166,66.721194 C26.8494103,66.721194 26.3691755,66.5154626 25.9634271,66.1039998 C25.5576786,65.6918538 25.3549727,65.2041098 25.3549727,64.6413371 C25.3549727,64.077995 25.5576786,63.5894541 25.9634271,63.1786743 C26.3696242,62.7665284 26.849859,62.56 27.4049166,62.56 C27.9601985,62.56 28.440882,62.7664145 28.8462939,63.1786743 C29.2517058,63.5893402 29.455197,64.0778812 29.455197,64.6413371 C29.455197,65.2041098 29.2517058,65.6915123 28.8462939,66.1039998 Z M51.4117637,59.5598372 C51.4117637,60.0492178 51.2416364,60.4708594 50.905121,60.8291066 C50.5661753,61.1873538 50.1668437,61.3645025 49.7035741,61.3645025 L5.2943853,61.3645025 C4.83186359,61.3645025 4.43159722,61.1859714 4.0935862,60.8291066 C3.75557518,60.4722418 3.58656967,60.0492178 3.58656967,59.5598372 L3.58656967,5.43093701 C3.58656967,4.9421488 3.75538823,4.51912482 4.0935862,4.16226005 C4.43178417,3.8050003 4.83186359,3.62666667 5.2943853,3.62666667 L49.7035741,3.62666667 C50.1668437,3.62666667 50.5659883,3.80440783 50.905121,4.16226005 C51.2429451,4.51912482 51.4117637,4.9421488 51.4117637,5.43093701 L51.4117637,59.5598372 Z" id="Shape"></path>
                    </g>
                </g>
                <g id="open-laptop-computer" transform="translate(962.000000, 448.000000)" fill-rule="nonzero">
                    <g id="Capa_1">
                        <g id="Group">
                            <path d="M26.1778761,64.7827377 L94.6413953,64.7827377 C97.4100692,64.7827377 99.779377,63.7934754 101.750862,61.8122951 C103.723228,59.8317787 104.70908,57.4529016 104.70908,54.6732295 L104.70908,10.1905082 C104.70908,7.41017213 103.723228,5.03107377 101.750862,3.05077869 C99.779377,1.07070492 97.4102896,0.0812213115 94.6413953,0.0812213115 L26.1778761,0.0812213115 C23.4092022,0.0812213115 21.0385719,1.07070492 19.066867,3.05077869 C17.0949417,5.03085246 16.1095301,7.41017213 16.1095301,10.1905082 L16.1095301,54.6734508 C16.1095301,57.453123 17.0949417,59.8326639 19.066867,61.8125164 C21.0385719,63.7921475 23.4092022,64.7827377 26.1778761,64.7827377 Z M21.8572382,8.77533994 C21.8572382,8.19297758 22.0693922,7.68805952 22.4932314,7.26341049 C22.9177739,6.83829068 23.4199108,6.62502459 23.9998766,6.62502459 L96.8179361,6.62502459 C97.3988396,6.62502459 97.9007421,6.83781989 98.3245813,7.26341049 C98.7472484,7.68923649 98.959168,8.19297758 98.959168,8.77533994 L98.959168,56.0886332 C98.959168,56.6702893 98.7472484,57.1754428 98.3245813,57.5998564 C97.9007421,58.025447 97.3988396,58.2387131 96.8179361,58.2387131 L23.9991734,58.2387131 C23.4189731,58.2387131 22.9168362,58.0261532 22.4925282,57.5998564 C22.0693922,57.173795 21.8572382,56.6702893 21.8572382,56.0886332 L21.8572382,8.77533994 Z" id="Shape"></path>
                            <path d="M110.750485,65.8920246 L10.0681257,65.8920246 L0,65.8920246 L0,68.9246557 C0,69.7676926 0.985411658,70.4834662 2.95711658,71.073083 C4.9299235,71.6626998 7.29945173,71.9577295 10.0681257,71.9577295 L110.750485,71.9577295 C113.518718,71.9577295 115.888466,71.6626998 117.860171,71.073083 C119.831876,70.4834662 120.81839,69.7676926 120.81839,68.9246557 L120.81839,65.8920246 L110.750485,65.8920246 L110.750485,65.8920246 Z" id="Shape"></path>
                        </g>
                    </g>
                </g>
                <path d="M931.5,8.5 L931.5,76 L948,76 L948,61 L955.5,61 L955.5,76 L972,76 L972,8.5 L931.5,8.5 Z M936,13 L943.5,13 L943.5,20.5 L936,20.5 L936,13 Z M948,13 L955.5,13 L955.5,20.5 L948,20.5 L948,13 Z M960,13 L967.5,13 L967.5,20.5 L960,20.5 L960,13 Z M936,25 L943.5,25 L943.5,32.5 L936,32.5 L936,25 Z M948,25 L955.5,25 L955.5,32.5 L948,32.5 L948,25 Z M960,25 L967.5,25 L967.5,32.5 L960,32.5 L960,25 Z M915,28 L915,76 L930,76 L930,28 L915,28 Z M973.5,28 L973.5,76 L988.5,76 L988.5,28 L973.5,28 Z M919.5,32.5 L925.5,32.5 L925.5,38.5 L919.5,38.5 L919.5,32.5 Z M978,32.5 L984,32.5 L984,38.5 L978,38.5 L978,32.5 Z M936,37 L943.5,37 L943.5,44.5 L936,44.5 L936,37 Z M948,37 L955.5,37 L955.5,44.5 L948,44.5 L948,37 Z M960,37 L967.5,37 L967.5,44.5 L960,44.5 L960,37 Z M919.5,43 L925.5,43 L925.5,49 L919.5,49 L919.5,43 Z M978,43 L984,43 L984,49 L978,49 L978,43 Z M936,49 L943.5,49 L943.5,56.5 L936,56.5 L936,49 Z M948,49 L955.5,49 L955.5,56.5 L948,56.5 L948,49 Z M960,49 L967.5,49 L967.5,56.5 L960,56.5 L960,49 Z M919.5,53.5 L925.5,53.5 L925.5,59.5 L919.5,59.5 L919.5,53.5 Z M978,53.5 L984,53.5 L984,59.5 L978,59.5 L978,53.5 Z M919.5,64 L925.5,64 L925.5,70 L919.5,70 L919.5,64 Z M978,64 L984,64 L984,70 L978,70 L978,64 Z" id="Page-1"></path>
                <path d="M128.121722,559.5 C128.429722,559.527 128.730722,559.652 128.964722,559.852 L160.464722,586.852 C161.058722,587.367 161.132722,588.379 160.617722,588.973 C160.101722,589.566 159.089722,589.641 158.496722,589.125 L127.980722,562.973 L97.4647218,589.129 C96.8717218,589.645 95.8597218,589.57 95.3437218,588.977 C94.8287218,588.383 94.9027218,587.371 95.4967218,586.855 L109.230722,575.09 L109.230722,562.504 L115.230722,562.504 L115.230722,569.934 L126.996722,559.855 C127.304722,559.594 127.718722,559.465 128.121722,559.504 L128.121722,559.5 Z M127.980722,565.5 L151.980722,585.75 L151.980722,621 L103.980722,621 L103.980722,585.75 L127.980722,565.5 Z M139.230722,590.25 L130.230722,590.25 L130.230722,599.25 L139.230722,599.25 L139.230722,590.25 Z M125.730722,590.25 L116.730722,590.25 L116.730722,599.25 L125.730722,599.25 L125.730722,590.25 Z M139.230722,603.75 L130.230722,603.75 L130.230722,612.75 L139.230722,612.75 L139.230722,603.75 Z M125.730722,603.75 L116.730722,603.75 L116.730722,612.75 L125.730722,612.75 L125.730722,603.75 Z" id="Page-1"></path>
                <path d="M121.82288,325.24576 L121.82288,327.00864 L110.73712,327.00864 L110.73712,325.24576 C110.73712,324.32288 111.49424,323.56576 112.41712,323.56576 L114.6,323.56576 C113.42288,322.98 112.66576,321.80288 112.66576,320.37264 C112.66576,318.4384 114.26288,316.84576 116.19264,316.84576 C118.12576,316.84576 119.7184,318.44288 119.7184,320.37264 C119.7184,321.71552 118.9624,322.89264 117.78528,323.56576 L119.96816,323.56576 C121.06576,323.56576 121.82288,324.32288 121.82288,325.24576 Z M167.18288,323.56576 L165,323.56576 C166.17712,322.98 166.93424,321.80288 166.93424,320.37264 C166.93424,318.4384 165.33712,316.84576 163.40736,316.84576 C161.47424,316.84576 159.8816,318.44288 159.8816,320.37264 C159.8816,321.71552 160.6376,322.89264 161.81472,323.56576 L159.63184,323.56576 C158.70896,323.56576 157.95184,324.32288 157.95184,325.24576 L157.95184,327.00864 L169.0376,327.00864 L169.0376,325.24576 C168.86288,324.32288 168.10576,323.56576 167.18288,323.56576 Z M130.47712,313.23712 L130.47712,330.03712 C130.47712,330.37312 130.22288,330.71024 129.80288,330.71024 L118.63424,330.71024 L119.30736,335.33024 L113.34448,335.33024 L114.0176,330.71024 L102.67424,330.71024 C102.33712,330.71024 102,330.45712 102,330.03712 L102,313.23712 C102,312.9 102.25424,312.56288 102.67424,312.56288 L129.80736,312.56288 C130.22288,312.64576 130.47712,312.9 130.47712,313.23712 Z M128.46,314.16 L103.93424,314.16 L103.93424,329.11312 L128.46,329.11312 L128.46,314.16 Z M111.99712,336 L120.56288,336 L120.56288,335.49712 L111.99712,335.49712 L111.99712,336 Z M177.51712,313.23712 L177.51712,330.03712 C177.51712,330.37312 177.26288,330.71024 176.84288,330.71024 L165.67424,330.71024 L166.34736,335.33024 L160.38448,335.33024 L161.0576,330.71024 L149.71424,330.71024 C149.37712,330.71024 149.04,330.45712 149.04,330.03712 L149.04,313.23712 C149.04,312.9 149.29424,312.56288 149.71424,312.56288 L176.84736,312.56288 C177.26288,312.64576 177.51712,312.9 177.51712,313.23712 Z M175.5,314.16 L150.97424,314.16 L150.97424,329.11312 L175.5,329.11312 L175.5,314.16 Z M159.03712,336 L167.60288,336 L167.60288,335.49712 L159.03712,335.49712 L159.03712,336 Z M116.78288,309.96 C116.94976,309.79312 117.03712,309.62288 117.03712,309.37312 C117.03712,309.12 116.95424,308.95312 116.78288,308.78736 C116.44576,308.45024 115.94288,308.45024 115.60576,308.78736 C115.44,308.95312 115.35264,309.12448 115.35264,309.37312 C115.35264,309.62736 115.43552,309.79312 115.60576,309.96 C115.77264,310.12576 115.94288,310.21312 116.19264,310.21312 C116.44576,310.20864 116.7,310.12576 116.78288,309.96 Z M115.35712,305.84288 C115.35712,305.34 115.69424,305.00288 116.19712,305.00288 C116.7,305.00288 117.03712,305.34 117.03712,305.84288 C117.03712,306.26288 116.7,306.68288 116.19712,306.68288 C115.77712,306.68288 115.35712,306.26288 115.35712,305.84288 Z M115.35712,302.31712 C115.35712,301.89712 115.69424,301.47712 116.19712,301.47712 C116.7,301.47712 117.03712,301.89712 117.03712,302.31712 C117.03712,302.82 116.7,303.15712 116.19712,303.15712 C115.77712,303.15712 115.35712,302.82 115.35712,302.31712 Z M116.78288,299.46 C116.94976,299.29312 117.03712,299.12288 117.03712,298.87312 C117.03712,298.62 116.95424,298.45312 116.78288,298.28736 C116.44576,297.95024 115.94288,297.95024 115.60576,298.28736 C115.44,298.45312 115.35264,298.62448 115.35264,298.87312 C115.35264,299.12736 115.43552,299.29312 115.60576,299.46 C115.77264,299.62576 115.94288,299.71312 116.19264,299.71312 C116.44576,299.70864 116.61712,299.62576 116.78288,299.46 Z M158.28,298.86864 C158.28,298.36576 158.7,298.02864 159.12,298.02864 C159.62288,298.02864 159.96,298.36576 159.96,298.86864 C159.96,299.28864 159.62288,299.70864 159.12,299.70864 C158.61712,299.70864 158.28,299.28864 158.28,298.86864 Z M153.99712,298.86864 C153.99712,298.36576 154.41712,298.02864 154.83712,298.02864 C155.25712,298.02864 155.67712,298.36576 155.67712,298.86864 C155.67712,299.28864 155.25712,299.70864 154.83712,299.70864 C154.33424,299.70864 153.99712,299.28864 153.99712,298.86864 Z M149.71424,298.86864 C149.71424,298.36576 150.05024,298.02864 150.55424,298.02864 C151.05712,298.02864 151.39424,298.36576 151.39424,298.86864 C151.39424,299.28864 151.05712,299.70864 150.55424,299.70864 C150.04576,299.70864 149.71424,299.28864 149.71424,298.86864 Z M145.42576,298.86864 C145.42576,298.36576 145.76288,298.02864 146.26576,298.02864 C146.68576,298.02864 147.10576,298.36576 147.10576,298.86864 C147.10576,299.28864 146.68576,299.70864 146.26576,299.70864 C145.76288,299.70864 145.42576,299.28864 145.42576,298.86864 Z M141.14288,298.86864 C141.14288,298.36576 141.48,298.02864 141.98288,298.02864 C142.40288,298.02864 142.82288,298.36576 142.82288,298.86864 C142.82288,299.28864 142.40288,299.70864 141.98288,299.70864 C141.48,299.70864 141.14288,299.28864 141.14288,298.86864 Z M136.77712,298.86864 C136.77712,298.36576 137.11424,298.02864 137.61712,298.02864 C138.12,298.02864 138.45712,298.36576 138.45712,298.86864 C138.45712,299.28864 138.12,299.70864 137.61712,299.70864 C137.19712,299.70864 136.77712,299.28864 136.77712,298.86864 Z M132.49424,298.86864 C132.49424,298.36576 132.91424,298.02864 133.33424,298.02864 C133.75424,298.02864 134.17424,298.36576 134.17424,298.86864 C134.17424,299.28864 133.75424,299.70864 133.33424,299.70864 C132.91424,299.70864 132.49424,299.28864 132.49424,298.86864 Z M128.20576,298.86864 C128.20576,298.36576 128.54288,298.02864 129.04576,298.02864 C129.46576,298.02864 129.88576,298.36576 129.88576,298.86864 C129.88576,299.28864 129.54976,299.70864 129.04576,299.70864 C128.62576,299.70864 128.20576,299.28864 128.20576,298.86864 Z M123.92288,298.86864 C123.92288,298.36576 124.34288,298.02864 124.76288,298.02864 C125.18288,298.02864 125.60288,298.36576 125.60288,298.86864 C125.60288,299.28864 125.18288,299.70864 124.76288,299.70864 C124.34288,299.70864 123.92288,299.28864 123.92288,298.86864 Z M119.64,298.86864 C119.64,298.36576 120.06,298.02864 120.48,298.02864 C120.9,298.02864 121.32,298.36576 121.32,298.86864 C121.32,299.28864 120.9,299.70864 120.48,299.70864 C120.06,299.70864 119.64,299.28864 119.64,298.86864 Z M163.99424,299.46 C164.16,299.29312 164.24736,299.12288 164.24736,298.87312 C164.24736,298.62 164.16448,298.45312 163.99424,298.28736 C163.65712,297.95024 163.15424,297.95024 162.81712,298.28736 C162.65024,298.45312 162.56288,298.62448 162.56288,298.87312 C162.56288,299.12736 162.64576,299.29312 162.81712,299.46 C162.98288,299.62576 163.15424,299.71312 163.40288,299.71312 C163.57424,299.70864 163.82288,299.62576 163.99424,299.46 Z M162.56288,305.84288 C162.56288,305.34 162.9,305.00288 163.40288,305.00288 C163.82288,305.00288 164.24288,305.34 164.24288,305.84288 C164.24288,306.26288 163.82288,306.68288 163.40288,306.68288 C162.9,306.68288 162.56288,306.26288 162.56288,305.84288 Z M162.56288,302.31712 C162.56288,301.89712 162.9,301.47712 163.40288,301.47712 C163.82288,301.47712 164.24288,301.89712 164.24288,302.31712 C164.24288,302.82 163.82288,303.15712 163.40288,303.15712 C162.9,303.15712 162.56288,302.82 162.56288,302.31712 Z M163.99424,309.96 C164.16,309.79312 164.24736,309.54 164.24736,309.37312 C164.24736,309.12 164.16448,308.95312 163.99424,308.78736 C163.65712,308.45024 163.15424,308.45024 162.81712,308.78736 C162.65024,308.95312 162.56288,309.12448 162.56288,309.37312 C162.56288,309.62736 162.64576,309.79312 162.81712,309.96 C162.98288,310.12576 163.15424,310.21312 163.40288,310.21312 C163.57424,310.20864 163.82288,310.12576 163.99424,309.96 Z" id="Page-1"></path>
                <path d="M1161.25,583.5 L1129,596.25 L1161.25,609 L1193.5,596.25 L1161.25,583.5 Z M1131.25,598.734 L1131.25,607.078 C1131.711,606.875 1132.219,606.75 1132.75,606.75 C1133.281,606.75 1133.789,606.875 1134.25,607.078 L1134.25,599.93 L1131.25,598.734 Z M1141,602.602 L1141,613.5 C1141,616.641 1150.031,621 1161.25,621 C1172.469,621 1181.5,616.641 1181.5,613.5 L1181.5,602.602 L1161.812,610.383 C1161.453,610.527 1161.047,610.527 1160.688,610.383 L1141,602.602 Z M1132.75,608.25 C1131.508,608.25 1130.5,609.258 1130.5,610.5 C1130.5,611.742 1131.508,612.75 1132.75,612.75 C1133.992,612.75 1135,611.742 1135,610.5 C1135,609.258 1133.992,608.25 1132.75,608.25 Z" id="Page-1"></path>
                <g id="Page-1" transform="translate(965.000000, 573.000000)">
                    <path d="M36.406,46.105 L35.07,45.68 C35.008,45.66 28.891,43.75 20.363,43.75 C15.348,43.75 10.492,44.406 5.93,45.691 L4.625,46.062 L4.625,3.344 L5.176,3.055 C5.41,2.93 11.086,0.016 20.047,0.016 C25.285,0.016 30.57,1.02 35.746,3.008 L36.402,3.262 L36.402,46.105 L36.406,46.105 Z M6.684,4.621 L6.684,43.363 C11.039,42.254 15.633,41.695 20.367,41.695 C26.938,41.695 32.047,42.762 34.355,43.348 L34.355,4.68 C29.629,2.949 24.816,2.074 20.051,2.074 C13.164,2.074 8.27,3.926 6.684,4.621 Z" id="Fill-1"></path>
                    <path d="M34.352,46.109 L34.352,3.262 L35.016,3.008 C40.191,1.02 45.473,0.016 50.711,0.016 C59.668,0.016 65.344,2.93 65.582,3.055 L66.137,3.344 L66.137,46.059 L64.828,45.688 C60.273,44.398 55.418,43.746 50.395,43.746 C41.848,43.746 35.754,45.656 35.691,45.676 L34.352,46.109 Z M50.395,41.695 C55.129,41.695 59.727,42.258 64.082,43.363 L64.082,4.621 C62.496,3.926 57.598,2.074 50.715,2.074 C45.949,2.074 41.145,2.949 36.41,4.68 L36.41,43.348 C38.719,42.762 43.824,41.695 50.395,41.695 Z" id="Fill-2"></path>
                    <polygon id="Fill-3" points="70.422 50.09 0.578 50.09 0.578 5.738 5.656 5.738 5.656 7.793 2.633 7.793 2.633 48.035 68.367 48.035 68.367 8.816 65.109 8.816 65.109 6.762 70.422 6.762"></polygon>
                    <polygon id="Fill-4" points="34.352 49.062 36.407 49.062 36.407 44.699 34.352 44.699"></polygon>
                    <path d="M13.031,10.688 L12.398,8.734 C12.773,8.613 21.559,5.828 29.262,8.75 L28.531,10.672 C21.508,8 13.113,10.656 13.031,10.688 Z" id="Fill-5"></path>
                    <path d="M13.031,19.949 L12.398,17.996 C12.773,17.879 21.559,15.094 29.262,18.012 L28.531,19.934 C21.508,17.266 13.113,19.926 13.031,19.949 Z" id="Fill-6"></path>
                    <path d="M13.031,29.215 L12.398,27.262 C12.773,27.141 21.559,24.355 29.262,27.277 L28.531,29.199 C21.508,26.531 13.113,29.188 13.031,29.215 Z" id="Fill-7"></path>
                    <path d="M13.031,38.48 L12.398,36.527 C12.773,36.41 21.559,33.625 29.262,36.543 L28.531,38.465 C21.508,35.793 13.113,38.453 13.031,38.48 Z" id="Fill-8"></path>
                    <path d="M13.031,33.848 L12.398,31.895 C12.773,31.773 21.559,28.988 29.262,31.91 L28.531,33.832 C21.508,31.16 13.113,33.82 13.031,33.848 Z" id="Fill-9"></path>
                    <path d="M13.031,24.586 L12.398,22.633 C12.773,22.512 21.559,19.727 29.262,22.648 L28.531,24.57 C21.508,21.895 13.113,24.555 13.031,24.586 Z" id="Fill-10"></path>
                    <path d="M13.031,15.316 L12.398,13.363 C12.773,13.242 21.559,10.461 29.262,13.379 L28.531,15.301 C21.508,12.629 13.113,15.289 13.031,15.316 Z" id="Fill-11"></path>
                    <path d="M42.469,10.688 L41.836,8.734 C42.211,8.613 51,5.828 58.699,8.75 L57.969,10.672 C50.949,8 42.551,10.656 42.469,10.688 Z" id="Fill-12"></path>
                    <path d="M42.469,19.949 L41.836,17.996 C42.211,17.879 51,15.094 58.699,18.012 L57.969,19.934 C50.949,17.266 42.551,19.926 42.469,19.949 Z" id="Fill-13"></path>
                    <path d="M42.469,29.215 L41.836,27.262 C42.211,27.141 51,24.355 58.699,27.277 L57.969,29.199 C50.949,26.531 42.551,29.188 42.469,29.215 Z" id="Fill-14"></path>
                    <path d="M42.469,38.48 L41.836,36.527 C42.211,36.41 51,33.625 58.699,36.543 L57.969,38.465 C50.949,35.793 42.551,38.453 42.469,38.48 Z" id="Fill-15"></path>
                    <path d="M42.469,33.848 L41.836,31.895 C42.211,31.773 51,28.988 58.699,31.91 L57.969,33.832 C50.949,31.16 42.551,33.82 42.469,33.848 Z" id="Fill-16"></path>
                    <path d="M42.469,24.586 L41.836,22.633 C42.211,22.512 51,19.727 58.699,22.648 L57.969,24.57 C50.949,21.895 42.551,24.555 42.469,24.586 Z" id="Fill-17"></path>
                    <path d="M42.469,15.316 L41.836,13.363 C42.211,13.242 51,10.461 58.699,13.379 L57.969,15.301 C50.949,12.629 42.551,15.289 42.469,15.316 Z" id="Fill-18"></path>
                </g>
                <path d="M1198,427 C1191.352,427 1186,432.352 1186,439 L1186,460 C1186,466.648 1191.352,472 1198,472 L1234,472 C1240.648,472 1246,466.648 1246,460 L1246,439 C1246,432.352 1240.648,427 1234,427 L1198,427 Z M1208.5,439 L1225,449.5 L1208.5,460 L1208.5,439 Z" id="Page-1"></path>
                <path d="M1002.078,321.929 L999.234,321.929 L999.234,282.964 L1002.078,282.964 C1003.649,282.964 1004.922,281.691 1004.922,280.121 C1004.922,278.55 1003.649,277.277 1002.078,277.277 L969.262,277.277 L969.262,273.011 C969.262,272.293 968.68,271.71 967.961,271.71 C967.242,271.71 966.66,272.293 966.66,273.011 L966.66,277.277 L933.844,277.277 C932.273,277.277 931,278.55 931,280.121 C931,281.691 932.273,282.964 933.844,282.964 L936.688,282.964 L936.688,321.929 L933.844,321.929 C932.273,321.929 931,323.203 931,324.773 C931,326.343 932.273,327.617 933.844,327.617 L965.621,327.617 L941.649,343.617 C941.051,344.015 940.891,344.824 941.289,345.421 C941.539,345.796 941.953,346 942.371,346 C942.617,346 942.871,345.929 943.094,345.781 L966.66,330.046 L966.66,344.699 C966.66,345.417 967.242,346 967.961,346 C968.68,346 969.262,345.417 969.262,344.699 L969.262,330.046 L992.828,345.781 C993.051,345.929 993.301,346 993.551,346 C993.973,346 994.383,345.796 994.633,345.421 C995.031,344.824 994.871,344.015 994.273,343.617 L970.305,327.613 L1002.082,327.613 C1003.652,327.613 1004.926,326.339 1004.926,324.769 C1004.926,323.199 1003.649,321.929 1002.078,321.929 Z" id="Page-1"></path>
                <path d="M5.64841683e-06,182.630518 L5.64841683e-06,145.235518 C5.64841683e-06,142.622518 2.11700565,140.501518 4.73500565,140.501518 L49.8240056,140.501518 C48.3710056,143.567518 48.3440056,147.118518 49.7500056,150.204518 L33.5120056,151.239518 C29.7890056,151.446518 26.8830056,154.544518 26.9220056,158.271518 C26.9570056,162.001518 29.9180056,165.040518 33.6490056,165.173518 L46.9530056,166.001518 L49.2030056,187.329518 L36.5940056,187.329518 L50.0940056,204.087518 C50.8950056,205.083518 50.7350056,206.536518 49.7420056,207.333518 L49.5470056,207.489518 C48.5510056,208.290518 47.0980056,208.130518 46.3010056,207.138518 L34.6680056,192.700518 L34.6680056,205.638518 C34.6680056,206.915518 33.6330056,207.946518 32.3600056,207.946518 L32.0940056,207.946518 C30.8170056,207.946518 29.7850056,206.911518 29.7850056,205.638518 L29.7850056,192.700518 L18.1720056,207.138518 C17.3710056,208.130518 15.9180056,208.290518 14.9260056,207.489518 L14.7310056,207.333518 C13.7390056,206.532518 13.5780056,205.079518 14.3790056,204.087518 L27.8280056,187.368518 L4.73500565,187.368518 C2.11700565,187.368518 -0.00399435158,185.247518 5.64841683e-06,182.630518 Z M60.3600056,152.575518 L60.3600056,152.575518 C63.2500056,152.575518 65.8560056,150.833518 66.9610056,148.161518 C68.0710056,145.493518 67.4570056,142.419518 65.4140056,140.372518 C63.3710056,138.329518 60.2970056,137.720518 57.6250056,138.825518 C54.9530056,139.931518 53.2110056,142.536518 53.2110056,145.427518 C53.2110056,147.321518 53.9650056,149.142518 55.3050056,150.481518 C56.6450056,151.825518 58.4650056,152.575518 60.3600056,152.575518 Z M67.1100056,154.458518 L64.8600056,154.458518 C64.7700056,154.458518 64.6840056,154.497518 64.6250056,154.571518 L60.9220056,159.192518 C60.6210056,159.548518 60.0740056,159.548518 59.7740056,159.192518 L56.0710056,154.563518 C56.0160056,154.497518 55.9340056,154.458518 55.8440056,154.458518 L52.7030056,154.517518 L33.7270056,155.739518 C32.3400056,155.868518 31.3320056,157.118518 31.5000056,158.501518 C31.6800056,159.724518 32.7030056,160.649518 33.9380056,160.704518 L50.7540056,161.782518 C50.9100056,161.794518 51.0350056,161.911518 51.0550056,162.067518 L54.3710056,193.110518 L55.7500056,205.810518 C55.8870056,206.993518 56.8910056,207.888518 58.0820056,207.888518 L62.7700056,207.888518 C63.9650056,207.884518 64.9690056,206.978518 65.0940056,205.790518 L68.0470056,178.634518 C69.8710056,177.966518 71.1640056,176.325518 71.3830056,174.396518 L73.1370056,161.173518 C73.3280056,159.466518 72.7850056,157.755518 71.6410056,156.474518 C70.4960056,155.189518 68.8600056,154.454518 67.1410056,154.450518 L67.1100056,154.458518 Z" id="Page-1"></path>
                <path d="M1229.33884,44.8527049 C1229.08315,41.775484 1225.45887,39.697245 1220.77911,38.6804242 L1220.77911,4.5247594 C1220.77911,2.36921822 1219.0309,0.621 1216.87684,0.621 L1137.90227,0.621 C1135.74822,0.621 1134,2.36921822 1134,4.5247594 L1134,58.7849338 C1134,60.9389884 1135.74822,62.68572 1137.90227,62.68572 L1169.96781,62.68572 L1169.31817,69.6667003 C1169.28844,70.0725366 1168.84098,73.6551947 1162.07109,73.6551947 C1161.14793,73.6551947 1160.39869,74.4044311 1160.39869,75.3275974 C1160.39869,76.2522502 1161.14793,77 1162.07109,77 L1192.70802,77 C1193.63119,77 1194.38042,76.2522502 1194.38042,75.3275974 C1194.38042,74.4044311 1193.63119,73.6551947 1192.70802,73.6551947 C1185.9307,73.6551947 1185.48473,70.078483 1185.455,69.596831 L1184.81131,62.6916663 L1197.99876,62.6916663 L1197.99876,68.8594873 C1197.99876,73.6150571 1205.88953,76.100619 1213.68218,76.100619 C1221.48227,76.100619 1229.37303,73.6150571 1229.37303,68.8594873 L1229.37303,45.1961049 C1229.37303,45.0742053 1229.36114,44.9641984 1229.33884,44.8527049 Z M1171.03071,73.650735 C1172.55148,71.8148085 1172.65703,69.9045531 1172.65703,69.9045531 L1173.33045,62.68572 L1181.45461,62.68572 L1182.12209,69.8064388 C1182.12209,69.8406301 1182.2202,71.7925098 1183.7603,73.650735 L1171.03071,73.650735 Z M1197.99876,59.3409148 L1137.90227,59.3409148 C1137.59455,59.3409148 1137.34481,59.0926559 1137.34481,58.7849338 L1137.34481,52.7211735 L1197.99876,52.7211735 L1197.99876,59.3409148 Z M1198.03295,44.8527049 C1198.00917,44.9641984 1197.99876,45.0801517 1197.99876,45.1961049 L1197.99876,49.3763682 L1137.34481,49.3763682 L1137.34481,4.5247594 C1137.34481,4.21555073 1137.59455,3.96580527 1137.90227,3.96580527 L1216.87684,3.96580527 C1217.18456,3.96580527 1217.43431,4.21555073 1217.43431,4.5247594 L1217.43431,38.1526883 C1216.20342,38.0248424 1214.94875,37.9490268 1213.68813,37.9490268 C1206.0813,37.9490268 1198.41054,40.3245819 1198.03295,44.8527049 Z M1226.02823,68.8535409 C1226.02823,70.1780838 1221.67255,72.7498674 1213.68218,72.7498674 C1205.69776,72.7498674 1201.34357,70.1721375 1201.34357,68.8535409 L1201.34357,65.5964439 C1204.36876,67.3208768 1209.03662,68.2083652 1213.68218,68.2083652 C1218.33369,68.2083652 1223.00304,67.3149305 1226.02823,65.5964439 L1226.02823,68.8535409 Z M1226.02823,60.9672334 C1226.02823,62.2917763 1221.67255,64.8635599 1213.68218,64.8635599 C1205.69776,64.8635599 1201.34357,62.28583 1201.34357,60.9672334 L1201.34357,57.7101364 C1204.36876,59.4345693 1209.03662,60.3235442 1213.68218,60.3235442 C1218.33369,60.3235442 1223.00304,59.428623 1226.02823,57.7101364 L1226.02823,60.9672334 Z M1226.02823,53.0824124 C1226.02823,54.4054688 1221.67255,56.9787389 1213.68218,56.9787389 C1205.69776,56.9787389 1201.34357,54.3995224 1201.34357,53.0824124 L1201.34357,49.8238288 C1204.36876,51.5482618 1209.03662,52.4372367 1213.68218,52.4372367 C1218.33369,52.4372367 1223.00304,51.5423154 1226.02823,49.8238288 L1226.02823,53.0824124 Z M1213.68218,49.0924314 C1205.69776,49.0924314 1201.34357,46.5147015 1201.34357,45.1961049 C1201.34357,43.871562 1205.69776,41.2997784 1213.68218,41.2997784 C1221.66809,41.2997784 1226.02823,43.8775083 1226.02823,45.1961049 C1226.02823,46.5206478 1221.67255,49.0924314 1213.68218,49.0924314 Z M1161.98933,13.5661397 C1161.31591,12.9328566 1160.25895,12.9611016 1159.62567,13.6345224 L1147.30935,26.6777763 C1146.69985,27.3214655 1146.69985,28.3263937 1147.30935,28.9775158 L1159.62567,42.0252295 C1159.95718,42.3730893 1160.39869,42.5485057 1160.8402,42.5485057 C1161.25199,42.5485057 1161.66377,42.3968745 1161.98933,42.0891525 C1162.66275,41.4558693 1162.69248,40.3989109 1162.0592,39.7254901 L1150.82214,27.8269028 L1162.05325,15.9283155 C1162.69248,15.2548947 1162.66275,14.1979362 1161.98933,13.5661397 Z M1184.0041,13.6345224 C1183.37081,12.9611016 1182.31385,12.9328566 1181.64043,13.5661397 C1180.96701,14.1979362 1180.93728,15.2548947 1181.57056,15.9283155 L1192.80168,27.8328491 L1181.57056,39.7314364 C1180.93728,40.4048572 1180.96701,41.4618156 1181.64043,42.0950988 C1181.96599,42.3968745 1182.37778,42.554452 1182.78956,42.554452 C1183.23702,42.554452 1183.67853,42.3790356 1184.0041,42.0311758 L1196.32041,28.9894084 C1196.92991,28.3442327 1196.92991,27.3393045 1196.32041,26.6956153 L1184.0041,13.6345224 Z M1177.35462,13.3907232 C1176.49538,13.0607024 1175.52464,13.4903241 1175.19462,14.3555137 L1165.31035,40.1090277 C1164.98033,40.968271 1165.40995,41.9375213 1166.27514,42.2690286 C1166.47286,42.3448442 1166.67503,42.3790356 1166.87275,42.3790356 C1167.54617,42.3790356 1168.17945,41.9731992 1168.43514,41.3057247 L1178.31793,15.5507241 C1178.64943,14.6914808 1178.21981,13.7222306 1177.35462,13.3907232 Z" id="Page-1"></path>
            </g>
            <g id="Group-3" opacity="0.399286685" transform="translate(15.000000, 29.000000)" fill="#FFFFFF">
                <g id="1488242439_js" transform="translate(238.000000, 451.000000)" fill-rule="nonzero">
                    <g id="Layer_1">
                        <g id="Group">
                            <path d="M18.5987697,1.11591731 L32.6893602,1.11591731 L32.6893602,40.7573514 C32.6893602,58.6239535 24.1610827,64.8589147 10.5334744,64.8589147 C7.1963878,64.8589147 2.93216535,64.3006202 0.150757874,63.3701292 L1.72677165,51.9244186 C3.67357283,52.5757623 6.17655512,53.0410078 8.95746063,53.0410078 C14.8903937,53.0410078 18.5987697,50.3422481 18.5987697,40.6646382 L18.5987697,1.11591731 L18.5987697,1.11591731 Z" id="Shape"></path>
                            <path d="M44.9235039,49.3183721 C48.6315453,51.2725711 54.5646457,53.22677 60.5902756,53.22677 C67.0795571,53.22677 70.5095079,50.5283463 70.5095079,46.340801 C70.5095079,42.5256202 67.5430413,40.1993928 60.0340945,37.5936822 C49.6512106,33.8713824 42.7914764,28.1020026 42.7914764,18.8898062 C42.7914764,8.18832041 51.7835728,0.092377261 66.4305118,0.092377261 C73.5688386,0.092377261 78.6671654,1.48861757 82.3755413,3.25638243 L79.2233465,14.6090439 C76.8132283,13.3995736 72.2705807,11.6313049 66.2454528,11.6313049 C60.1269587,11.6313049 57.1603248,14.5159948 57.1603248,17.68 C57.1603248,21.681447 60.5902756,23.4492119 68.748435,26.613385 C79.7796949,30.7078811 84.8783563,36.477261 84.8783563,45.410478 C84.8783563,55.9256977 76.9059252,64.8590827 59.7560039,64.8590827 C52.6176772,64.8590827 45.5720472,62.9047158 42.0499016,60.9506848 L44.9235039,49.3183721 Z" id="Shape"></path>
                        </g>
                    </g>
                </g>
                <g id="1488242487_Python_logo" transform="translate(64.000000, 0.000000)" fill-rule="nonzero">
                    <g id="Layer_7">
                        <g id="Group">
                            <path d="M38.9973586,0.123307087 C35.743251,0.138740157 32.635498,0.416062992 29.9008705,0.900472441 C21.8455458,2.32472441 20.3831016,5.30519685 20.3831016,10.8023622 L20.3831016,18.0626772 L39.4191116,18.0626772 L39.4191116,20.4825197 L20.3829442,20.4825197 L13.2389522,20.4825197 C7.70659163,20.4825197 2.86241235,23.8100787 1.34756375,30.14 C-0.400350598,37.3959055 -0.478406375,41.924252 1.34756375,49.5004724 C2.70079283,55.1395276 5.93176693,59.1577953 11.4642849,59.1577953 L18.0091673,59.1577953 L18.0091673,50.4540157 C18.0091673,44.1672441 23.4453745,38.6204724 29.9007131,38.6204724 L48.9145339,38.6204724 C54.2072191,38.6204724 58.4321454,34.26 58.4321454,28.9407874 L58.4321454,10.8022047 C58.4321454,5.64062992 54.0803785,1.76188976 48.9145339,0.900314961 C45.6445319,0.355433071 42.2513088,0.107716535 38.9973586,0.123307087 Z M28.7029661,5.96220472 C30.6691534,5.96220472 32.2751195,7.59527559 32.2751195,9.60314961 C32.2751195,11.603937 30.6691534,13.2223622 28.7029661,13.2223622 C26.7292251,13.2223622 25.1308127,11.603937 25.1308127,9.60314961 C25.1308127,7.59527559 26.7292251,5.96220472 28.7029661,5.96220472 Z" id="path1948_1_"></path>
                            <path d="M60.8059223,20.4822047 L60.8059223,28.9407874 C60.8059223,35.4995276 55.2502709,41.0182677 48.9146912,41.0182677 L29.9007131,41.0182677 C24.6926932,41.0182677 20.3829442,45.4792126 20.3829442,50.6984252 L20.3829442,68.8379528 C20.3829442,73.999685 24.8684761,77.0368504 29.9007131,78.5171654 C35.9265876,80.2902362 41.7041315,80.6116535 48.9145339,78.5171654 C53.7066235,77.1294488 58.4321454,74.3343307 58.4321454,68.8379528 L58.4321454,61.5773228 L39.4189542,61.5773228 L39.4189542,59.1577953 L58.431988,59.1577953 L67.9495996,59.1577953 C73.4822749,59.1577953 75.5443008,55.2965354 77.4676833,49.5004724 C79.4551155,43.5327559 79.3707649,37.7941732 77.4676833,30.14 C76.1006056,24.6292913 73.4891992,20.4825197 67.9495996,20.4825197 L60.8059223,20.4825197 L60.8059223,20.4822047 Z M50.112753,66.4173228 C52.0860219,66.4173228 53.684749,68.0344882 53.684749,70.0354331 C53.684749,72.0431496 52.0860219,73.6770079 50.112753,73.6770079 C48.1467231,73.6770079 46.5410717,72.0431496 46.5410717,70.0354331 C46.5409143,68.0344882 48.1465657,66.4173228 50.112753,66.4173228 Z" id="path1950_1_"></path>
                        </g>
                    </g>
                </g>
                <g id="1488242545_php" transform="translate(1104.000000, 94.000000)" fill-rule="nonzero">
                    <g id="Layer_2">
                        <g id="Group">
                            <path d="M23.0140631,18.3471399 C26.6026529,18.3471399 28.9942899,19.0080453 30.1901085,20.3300823 C31.3847929,21.6521193 31.6694576,23.9213786 31.0443294,27.1369547 C30.3913018,30.4856173 29.133787,32.8757407 27.2697436,34.3077778 C25.4057002,35.7400412 22.5690335,36.4552675 18.7608777,36.4552675 L13.0154142,36.4552675 L16.5423077,18.3471399 L23.0140631,18.3471399 L23.0140631,18.3471399 Z M0,54.7865638 L9.44565089,54.7865638 L11.6859961,43.2834156 L19.7765976,43.2834156 C23.3465878,43.2834156 26.283284,42.9099588 28.5887278,42.1607819 C30.8943984,41.4127366 32.9895759,40.1581481 34.8756213,38.3967901 C36.4584024,36.9448354 37.7390533,35.3434979 38.7198422,33.5923251 C39.699497,31.8425103 40.3956213,29.9104938 40.8070809,27.7978601 C41.8064694,22.6690535 41.0522781,18.6741975 38.5467751,15.8121605 C36.0412722,12.9501235 32.055286,11.5192181 26.5910848,11.5192181 L8.4274359,11.5192181 L0,54.7865638 Z" id="Shape"></path>
                            <path d="M47.7442801,0.0160699588 L57.1153057,0.0160699588 L54.8747337,11.5192181 L63.2232347,11.5192181 C68.4758087,11.5192181 72.0993294,12.4340741 74.09357,14.261749 C76.0875838,16.0905556 76.6850394,19.0533128 75.8877515,23.1491152 L71.9668639,43.2834156 L62.4470414,43.2834156 L66.1751282,24.1393416 C66.5992899,21.9615226 66.4436884,20.47607 65.7069625,19.6841152 C64.9702367,18.8919342 63.4026529,18.4956173 61.0051183,18.4956173 L53.5153748,18.4956173 L48.6878698,43.2831893 L39.3166174,43.2831893 L47.7442801,0.0160699588 Z" id="Shape"></path>
                            <path d="M96.7383629,18.3471399 C100.326953,18.3471399 102.71859,19.0080453 103.914408,20.3300823 C105.109546,21.6521193 105.393984,23.9213786 104.768629,27.1369547 C104.115602,30.4856173 102.85854,32.8757407 100.994043,34.3077778 C99.13,35.7400412 96.2933333,36.4552675 92.4851775,36.4552675 L86.7399408,36.4552675 L90.2668343,18.3471399 L96.7383629,18.3471399 L96.7383629,18.3471399 Z M73.7245266,54.7865638 L83.1701775,54.7865638 L85.4102959,43.2834156 L93.5008974,43.2834156 C97.0708876,43.2834156 100.007584,42.9099588 102.313254,42.1607819 C104.618698,41.4127366 106.713876,40.1581481 108.600148,38.3967901 C110.183156,36.9448354 111.46358,35.3434979 112.444369,33.5923251 C113.423797,31.8425103 114.120148,29.9104938 114.531381,27.7978601 C115.530769,22.6690535 114.776805,18.6741975 112.271075,15.8121605 C109.765572,12.9501235 105.779586,11.5192181 100.315385,11.5192181 L82.1521893,11.5192181 L73.7245266,54.7865638 Z" id="Shape"></path>
                        </g>
                    </g>
                </g>
                <g id="1488242755_swift-social-network-brand-logo" transform="translate(305.000000, 113.000000)" fill-rule="nonzero">
                    <g id="swift">
                        <path d="M77.4608625,54.6921 C83.5898625,37.4655 74.0464125,14.56485 53.5093125,0 C62.4418125,13.58565 65.3891625,28.5497625 59.1620625,40.38495 C45.2387625,31.3572 17.8607625,7.45455 17.8607625,7.45455 C17.8607625,7.45455 30.6971625,26.98965 40.4648625,36.4782 C30.6971625,30.6174 25.3945125,26.43165 8.3716125,12.1992 C20.0317125,31.3374 39.9580125,48.6936 47.1620625,54.6921 C25.3945125,66.33915 0,49.5945 0,49.5945 C4.3622625,56.2287 10.5205125,61.19895 17.8607625,66.33915 C37.9862625,80.4309 58.0459125,77.01345 65.8607625,69.7581 C65.8607625,69.7581 68.25,67.0802625 73.3945125,68.5817625 C76.9745625,69.62625 81.7220625,73.41285 83.4375,75.1824 C83.8051125,73.59585 84,71.9436 84,70.2459 C84,64.15215 81.4966125,58.6427625 77.4608625,54.6921 Z" id="Shape"></path>
                    </g>
                </g>
                <text id="C++" font-family="BrandonText-Bold, Brandon Text" font-size="50" font-weight="bold">
                    <tspan x="1009" y="377">C++</tspan>
                </text>
                <g id="1488243138_1416364765_java_coffee_x_cup_application" transform="translate(0.000000, 347.000000)" fill-rule="nonzero">
                    <g id="Layer_1">
                        <path d="M24.8300295,80.4283858 C24.8300295,80.4283858 20.8546455,82.7395725 27.6586032,83.5216728 C35.9012927,84.4618084 40.1144868,84.3270289 49.1978213,82.6081141 C49.1978213,82.6081141 51.5859001,84.1054033 54.9214243,85.4019441 C34.5584431,94.1279788 8.83545947,84.8969956 24.8300295,80.4283858" id="path1901"></path>
                        <path d="M22.3417958,69.04235 C22.3417958,69.04235 17.8831951,72.3420791 24.6923742,73.0458767 C33.4975497,73.9542152 40.4515051,74.0287234 52.4839802,71.7118431 C52.4839802,71.7118431 54.1481838,73.3989608 56.7655276,74.3215383 C32.1447329,81.5194352 4.72194678,74.8891305 22.3417958,69.04235" id="path1903"></path>
                        <path d="M43.3185279,49.7275695 C48.3358175,55.5031628 42.0003611,60.7007233 42.0003611,60.7007233 C42.0003611,60.7007233 54.7405739,54.1249942 48.8897603,45.8906216 C43.424853,38.2119766 39.2344439,34.3963831 61.9209478,21.2420772 C61.9209478,21.2416709 26.3105323,30.133738 43.3185279,49.7275695" id="path1905"></path>
                        <path d="M70.250503,88.851165 C70.250503,88.851165 73.1920493,91.2743528 67.0103877,93.1489284 C55.2570183,96.7087245 18.0892037,97.784115 7.76459873,93.2903522 C4.05313372,91.6763189 11.0132592,89.4363173 13.2029239,88.9660119 C15.4860978,88.4710287 16.7909735,88.5630972 16.7909735,88.5630972 C12.6632209,85.6563175 -9.88800031,94.2713017 5.33569976,96.7390978 C46.8543639,103.470488 81.0198754,93.7075039 70.250503,88.851165" id="path1907"></path>
                        <path d="M26.7415352,57.2448581 C26.7415352,57.2448581 7.83580037,61.7338759 20.0467529,63.3645208 C25.2021731,64.0545547 35.4802591,63.8984186 45.0539312,63.0968589 C52.8779581,62.436723 60.7337906,61.0338747 60.7337906,61.0338747 C60.7337906,61.0338747 57.9749944,62.2150953 55.9789959,63.577605 C36.7808602,68.6261469 -0.307208871,66.2769941 10.3700776,61.1136053 C19.3997741,56.749875 26.7415352,57.2448581 26.7415352,57.2448581" id="path1909"></path>
                        <path d="M60.6559455,76.1980111 C80.1716341,66.0586895 71.1481077,56.3151631 64.8496763,57.6278422 C63.3060417,57.9491291 62.6177673,58.2272316 62.6177673,58.2272316 C62.6177673,58.2272316 63.1911715,57.329807 64.2857661,56.9416047 C76.7454469,52.5617402 86.3281376,69.858622 60.2633897,76.7091305 C60.2633897,76.7091305 60.5657559,76.4395714 60.6559455,76.1980111" id="path1911"></path>
                        <path d="M48.8897603,4.32958378e-05 C48.8897603,4.32958378e-05 59.6975799,10.8094661 38.6382546,27.4319764 C21.7508279,40.7656702 34.7872368,48.368383 38.6311438,57.0545544 C28.7736099,48.1624183 21.539598,40.3347567 26.3926521,33.0495344 C33.5165377,22.3554338 53.2501017,17.170687 48.8897603,4.32958378e-05" id="path1913"></path>
                        <path d="M28.6592131,103.673131 C47.3921672,104.871912 76.1582783,103.007777 76.839907,94.1455389 C76.839907,94.1455389 75.5302854,97.5050639 61.3579843,100.173131 C45.3691131,103.181471 25.6488402,102.830284 13.9529059,100.902082 C13.9533122,100.902082 16.3471549,102.883438 28.6592131,103.673131" id="path1915"></path>
                    </g>
                </g>
            </g>
        </g>
    </g>
</svg>