<?xml version="1.0" encoding="UTF-8" standalone="no"?>
<!DOCTYPE svg PUBLIC "-//W3C//DTD SVG 1.1//EN" "http://www.w3.org/Graphics/SVG/1.1/DTD/svg11.dtd">
<svg width="100%" height="100%" viewBox="0 0 500 300" version="1.1" xmlns="http://www.w3.org/2000/svg" xmlns:xlink="http://www.w3.org/1999/xlink" xml:space="preserve" style="fill-rule:evenodd;clip-rule:evenodd;stroke-linejoin:round;stroke-miterlimit:1.41421;">
    <rect x="0" y="0" width="500" height="300" style="fill:rgb(255,165,27);"/>
    <g transform="matrix(1,0,0,1,200,-852.362)">
        <path d="M10,966.362C6.711,966.362 4,969.073 4,972.362L4,1036.36C4,1037.46 4.903,1038.36 6,1038.36L94,1038.36C95.097,1038.36 96,1037.46 96,1036.36L96,972.362C96,969.073 93.289,966.362 90,966.362L10,966.362ZM10,970.362L90,970.362C91.143,970.362 92,971.219 92,972.362L92,984.362L8,984.362L8,972.362C8,971.219 8.857,970.362 10,970.362L10,970.362ZM15,974.362C13.343,974.362 12,975.705 12,977.362C12,979.019 13.343,980.362 15,980.362C16.657,980.362 18,979.019 18,977.362C18,975.705 16.657,974.362 15,974.362ZM25,974.362C23.343,974.362 22,975.705 22,977.362C22,979.019 23.343,980.362 25,980.362C26.657,980.362 28,979.019 28,977.362C28,975.705 26.657,974.362 25,974.362ZM35,974.362C33.343,974.362 32,975.705 32,977.362C32,979.019 33.343,980.362 35,980.362C36.657,980.362 38,979.019 38,977.362C38,975.705 36.657,974.362 35,974.362ZM8,988.362L92,988.362L92,1034.36L8,1034.36L8,988.362L8,988.362Z" style="fill:white;fill-rule:nonzero;"/>
    </g>
</svg>
